<svg width="300" height="300" viewBox="0 0 300 300" fill="none" xmlns="http://www.w3.org/2000/svg">
  <rect width="300" height="300" fill="#121212"/>
  <path d="M150 65C96.9786 65 54 107.979 54 161C54 214.021 96.9786 257 150 257C203.021 257 246 214.021 246 161C246 107.979 203.021 65 150 65ZM150 235.667C108.724 235.667 75.3333 202.276 75.3333 161C75.3333 119.724 108.724 86.3333 150 86.3333C191.276 86.3333 224.667 119.724 224.667 161C224.667 202.276 191.276 235.667 150 235.667Z" fill="#00FFAB" fill-opacity="0.5"/>
  <path d="M196.483 129.4H170.6V103.517C170.6 98.5992 166.601 94.6 161.683 94.6H138.317C133.399 94.6 129.4 98.5992 129.4 103.517V129.4H103.517C98.5992 129.4 94.6 133.399 94.6 138.317V161.683C94.6 166.601 98.5992 170.6 103.517 170.6H129.4V196.483C129.4 201.401 133.399 205.4 138.317 205.4H161.683C166.601 205.4 170.6 201.401 170.6 196.483V170.6H196.483C201.401 170.6 205.4 166.601 205.4 161.683V138.317C205.4 133.399 201.401 129.4 196.483 129.4ZM190.733 155.933H155.933V190.733H144.067V155.933H109.267V144.067H144.067V109.267H155.933V144.067H190.733V155.933Z" fill="#00FFAB"/>
  <text x="150" y="245" text-anchor="middle" font-family="Arial" font-size="16" fill="#FFFFFF">Medicine Image</text>
</svg> 